<svg width="49" height="48" viewBox="0 0 49 48" fill="none" xmlns="http://www.w3.org/2000/svg">
<g opacity="0.25">
<path d="M13 42H36C39.59 42 42.5 39.09 42.5 35.5V12.5C42.5 8.91 39.59 6 36 6H13C9.41 6 6.5 8.91 6.5 12.5V35.5C6.5 39.09 9.41 42 13 42Z" fill="#00C300"/>
<path d="M37.6134 22.4173C37.6134 16.5523 31.7334 11.7803 24.5064 11.7803C17.2794 11.7803 11.3984 16.5523 11.3984 22.4173C11.3984 27.6753 16.0614 32.0793 22.3604 32.9123C22.7874 33.0043 23.3684 33.1943 23.5154 33.5583C23.6474 33.8893 23.6014 34.4083 23.5574 34.7433C23.5574 34.7433 23.4044 35.6683 23.3704 35.8653C23.3134 36.1963 23.1074 37.1613 24.5054 36.5723C25.9044 35.9833 32.0534 32.1273 34.8034 28.9613H34.8024C36.7034 26.8793 37.6134 24.7643 37.6134 22.4173ZM19.3754 25.9073H16.7714C16.3924 25.9073 16.0844 25.5993 16.0844 25.2193V20.0103C16.0844 19.6313 16.3924 19.3233 16.7714 19.3233C17.1504 19.3233 17.4584 19.6313 17.4584 20.0103V24.5313H19.3754C19.7544 24.5313 20.0624 24.8393 20.0624 25.2183C20.0624 25.5983 19.7544 25.9073 19.3754 25.9073ZM22.0684 25.2193C22.0684 25.5983 21.7604 25.9073 21.3814 25.9073C21.0024 25.9073 20.6944 25.5993 20.6944 25.2193V20.0103C20.6944 19.6313 21.0024 19.3233 21.3814 19.3233C21.7604 19.3233 22.0684 19.6313 22.0684 20.0103V25.2193ZM28.3384 25.2193C28.3384 25.5163 28.1504 25.7783 27.8684 25.8713C27.7974 25.8953 27.7234 25.9073 27.6504 25.9073C27.4354 25.9073 27.2304 25.8043 27.1014 25.6323L24.4324 21.9973V25.2193C24.4324 25.5983 24.1244 25.9073 23.7444 25.9073C23.3654 25.9073 23.0564 25.5993 23.0564 25.2193V20.0103C23.0564 19.7143 23.2454 19.4523 23.5264 19.3583C23.5974 19.3343 23.6704 19.3233 23.7444 19.3233C23.9584 19.3233 24.1644 19.4263 24.2934 19.5983L26.9634 23.2333V20.0103C26.9634 19.6313 27.2724 19.3233 27.6514 19.3233C28.0304 19.3233 28.3384 19.6313 28.3384 20.0103V25.2193ZM32.5524 21.9273C32.9314 21.9273 33.2404 22.2353 33.2404 22.6153C33.2404 22.9943 32.9324 23.3023 32.5524 23.3023H30.6354V24.5323H32.5524C32.9314 24.5323 33.2404 24.8403 33.2404 25.2193C33.2404 25.5983 32.9314 25.9073 32.5524 25.9073H29.9484C29.5704 25.9073 29.2614 25.5993 29.2614 25.2193V22.6163C29.2614 22.6153 29.2614 22.6153 29.2614 22.6153V22.6143V20.0133C29.2614 20.0123 29.2614 20.0123 29.2614 20.0113C29.2614 19.6323 29.5694 19.3243 29.9484 19.3243H32.5524C32.9314 19.3243 33.2404 19.6323 33.2404 20.0113C33.2404 20.3903 32.9324 20.6983 32.5524 20.6983H30.6354V21.9283H32.5524V21.9273Z" fill="white"/>
</g>
</svg>
