<svg width="87" height="16" viewBox="0 0 87 16" fill="none" xmlns="http://www.w3.org/2000/svg">
<g clip-path="url(#clip0)">
<path d="M15.973 14.3799C15.0243 14.3257 14.1127 13.9927 13.3525 13.4226C13.2713 13.3634 13.1752 13.328 13.0749 13.3204C12.9747 13.3128 12.8743 13.3333 12.7851 13.3796C12.7689 13.3877 12.7542 13.3957 12.7375 13.4052C11.6576 14.0451 10.4704 14.4834 9.23375 14.6986C7.75476 14.9769 6.37479 14.9639 5.09381 14.6596C3.87033 14.3843 2.75028 13.7669 1.86421 12.8795C0.991554 11.9989 0.418779 10.8323 0.145877 9.37963C-0.125676 7.92786 -0.0181032 6.61888 0.468598 5.4527C0.954338 4.28697 1.7627 3.28409 2.7987 2.56189C3.05491 2.37928 3.32161 2.21184 3.59741 2.06043V8.11897C3.59741 8.13777 3.59741 8.15467 3.59872 8.17407C3.60651 8.55388 3.66482 8.93096 3.7721 9.29538C3.99661 10.0833 4.37264 10.6991 4.9002 11.1428C5.43498 11.5883 6.08556 11.8723 6.77585 11.9617C7.54392 12.061 8.32434 11.9964 9.06561 11.7721C9.73868 11.5904 10.3729 11.2874 10.9372 10.8779C10.9448 10.8721 10.9528 10.8668 10.961 10.8619C11.0078 10.8314 11.0623 10.8147 11.1182 10.8138C11.1741 10.8128 11.2291 10.8276 11.2769 10.8565C11.7266 11.1325 12.2475 11.27 12.7748 11.2518C12.3531 10.8059 12.1175 10.2158 12.116 9.60204C12.1144 9.55331 12.1245 9.5049 12.1455 9.46091C12.2127 9.32005 12.2707 9.17496 12.319 9.02657C12.5342 8.37176 12.5292 7.6502 12.3043 6.86188C12.0742 6.0592 11.6905 5.43307 11.1533 4.98349C10.6092 4.53186 9.9489 4.24249 9.24803 4.14849C8.52983 4.04875 7.79886 4.09588 7.0994 4.287V0.922927C8.33707 0.722939 9.60193 0.76741 10.8225 1.05383C12.0646 1.33915 13.2015 1.96813 14.1031 2.8689C14.9933 3.7617 15.5773 4.94807 15.8552 6.42801C16.1267 7.87979 16.0164 9.175 15.5243 10.3137C15.4126 10.5718 15.2842 10.8225 15.1399 11.0639C15.0948 11.1394 15.0689 11.2248 15.0645 11.3126C14.9643 12.4136 15.2893 13.5111 15.973 14.3799Z" fill="#5C5EB6"/>
<path d="M9.83016 8.39629C9.91328 8.07791 9.8978 7.7418 9.78577 7.4324C9.69119 7.11113 9.50075 6.8264 9.23993 6.61632C8.98933 6.4239 8.68941 6.30632 8.37481 6.27717C8.02886 6.24398 7.67981 6.28571 7.35143 6.3995C7.01869 6.50152 6.71248 6.67553 6.45454 6.90917C6.22405 7.11967 6.05846 7.39161 5.97724 7.69301C5.89721 8.01574 5.91451 8.35494 6.02698 8.66784C6.11347 8.97613 6.2928 9.2503 6.54058 9.4531C6.78836 9.65589 7.09258 9.77747 7.41188 9.8013C7.75564 9.83242 8.10209 9.79028 8.42836 9.67766C8.725 9.58412 9.00237 9.43791 9.24718 9.24605C9.2498 9.24343 9.25385 9.2407 9.25659 9.23796C9.27703 9.22356 9.30109 9.21516 9.32605 9.21373C9.35102 9.2123 9.37588 9.21789 9.39784 9.22987C9.60329 9.34481 9.83804 9.39671 10.0728 9.37909C9.8762 9.18844 9.76062 8.92936 9.75007 8.6557C9.74788 8.63419 9.75111 8.61246 9.75947 8.59251C9.7878 8.52892 9.81142 8.46334 9.83016 8.39629Z" fill="#56CCF2"/>
<path d="M44.1054 12.604C43.1716 12.604 42.4009 12.3184 41.7934 11.7472V12.4H39.4814V2.34961H41.875V6.40241C42.138 6.17574 42.4644 5.99894 42.8542 5.87201C43.2532 5.73601 43.6702 5.66801 44.1054 5.66801C44.7945 5.66801 45.3974 5.81308 45.9142 6.10321C46.4401 6.39334 46.8481 6.80588 47.1382 7.34081C47.4284 7.86668 47.5734 8.46961 47.5734 9.14961C47.5734 9.83868 47.4284 10.4461 47.1382 10.972C46.8481 11.4888 46.4401 11.8923 45.9142 12.1824C45.3884 12.4635 44.7854 12.604 44.1054 12.604ZM43.4798 10.7544C43.9694 10.7544 44.3638 10.6139 44.663 10.3328C44.9622 10.0427 45.1118 9.64828 45.1118 9.14961C45.1118 8.65094 44.9622 8.25654 44.663 7.96641C44.3638 7.67628 43.9694 7.53121 43.4798 7.53121C43.1172 7.53121 42.7908 7.62641 42.5006 7.81681C42.2105 7.99814 42.002 8.24748 41.875 8.56481V9.72081C42.002 10.0381 42.2105 10.292 42.5006 10.4824C42.7908 10.6637 43.1172 10.7544 43.4798 10.7544Z" fill="#5C5EB6"/>
<path d="M50.9423 12.604C50.1263 12.604 49.4644 12.4091 48.9567 12.0192C48.458 11.6203 48.2087 11.0672 48.2087 10.36C48.2087 9.62561 48.4489 9.06348 48.9295 8.67361C49.4191 8.27468 50.1172 8.07521 51.0239 8.07521C51.3775 8.07521 51.7311 8.11601 52.0847 8.19761C52.4383 8.27014 52.742 8.36988 52.9959 8.49681V8.36081C52.9959 7.66268 52.4247 7.31361 51.2823 7.31361C50.4844 7.31361 49.7545 7.46774 49.0927 7.77601V6.13041C49.3828 5.99441 49.7636 5.88561 50.2351 5.80401C50.7065 5.71334 51.1961 5.66801 51.7039 5.66801C52.9188 5.66801 53.8345 5.91281 54.4511 6.40241C55.0767 6.88294 55.3895 7.55841 55.3895 8.42881V12.4H53.1455V11.8424C52.9007 12.0781 52.5924 12.264 52.2207 12.4C51.8489 12.536 51.4228 12.604 50.9423 12.604ZM51.6495 11.1352C51.9305 11.1352 52.1935 11.0808 52.4383 10.972C52.6831 10.8541 52.8689 10.7045 52.9959 10.5232V9.95201C52.606 9.68908 52.1617 9.55761 51.6631 9.55761C51.3457 9.55761 51.1009 9.62561 50.9287 9.76161C50.7564 9.89761 50.6703 10.0971 50.6703 10.36C50.6703 10.6048 50.7519 10.7952 50.9151 10.9312C51.0873 11.0672 51.3321 11.1352 51.6495 11.1352Z" fill="#5C5EB6"/>
<path d="M60.5511 12.604C59.7895 12.604 59.1186 12.468 58.5383 12.196C57.9671 11.924 57.5228 11.5296 57.2055 11.0128C56.8882 10.496 56.7295 9.87494 56.7295 9.14961C56.7295 8.42428 56.8882 7.80321 57.2055 7.28641C57.5319 6.76054 57.9807 6.36161 58.5519 6.08961C59.1322 5.80854 59.8076 5.66801 60.5783 5.66801C61.5938 5.66801 62.4052 5.86748 63.0127 6.26641V7.64001C62.4234 7.22294 61.6708 7.01441 60.7551 7.01441C60.057 7.01441 59.4994 7.19121 59.0823 7.54481C58.6743 7.88934 58.4703 8.42428 58.4703 9.14961C58.4703 9.86588 58.6743 10.3963 59.0823 10.7408C59.4994 11.0853 60.0479 11.2576 60.7279 11.2576C61.6436 11.2576 62.4324 11.04 63.0943 10.6048V11.9648C62.7679 12.1824 62.3962 12.3411 61.9791 12.4408C61.5711 12.5496 61.0951 12.604 60.5511 12.604Z" fill="#56CCF2"/>
<path d="M64.7523 2.34961H66.4659V6.70161C67.0824 6.01254 67.8803 5.66801 68.8595 5.66801C69.7389 5.66801 70.3963 5.90828 70.8315 6.38881C71.2667 6.86028 71.4843 7.49041 71.4843 8.27921V12.4H69.7707V8.44241C69.7707 7.49041 69.3264 7.01441 68.4379 7.01441C68.048 7.01441 67.6808 7.10961 67.3363 7.30001C66.9917 7.48134 66.7016 7.75788 66.4659 8.12961V12.4H64.7523V2.34961Z" fill="#56CCF2"/>
<path d="M75.5474 12.604C74.7677 12.604 74.1285 12.4 73.6298 11.992C73.1312 11.5749 72.8818 11.0173 72.8818 10.3192C72.8818 9.59388 73.1176 9.02721 73.589 8.61921C74.0605 8.21121 74.7224 8.00721 75.5746 8.00721C76.3997 8.00721 77.1114 8.17494 77.7098 8.51041V8.33361C77.7098 7.87121 77.5648 7.53574 77.2746 7.32721C76.9936 7.11868 76.5357 7.01441 75.901 7.01441C75.5021 7.01441 75.1077 7.05521 74.7178 7.13681C74.328 7.20934 73.9834 7.31361 73.6842 7.44961V6.10321C73.9562 5.97628 74.3189 5.87201 74.7722 5.79041C75.2346 5.70881 75.6789 5.66801 76.105 5.66801C77.2384 5.66801 78.077 5.91281 78.621 6.40241C79.165 6.88294 79.437 7.55388 79.437 8.41521V12.4H77.8186V11.7608C77.5376 12.0328 77.2157 12.2413 76.853 12.3864C76.4994 12.5315 76.0642 12.604 75.5474 12.604ZM75.969 11.3528C76.3498 11.3528 76.6944 11.2803 77.0026 11.1352C77.3109 10.9811 77.5466 10.7725 77.7098 10.5096V9.78881C77.2112 9.43521 76.64 9.25841 75.9962 9.25841C75.0805 9.25841 74.6226 9.61201 74.6226 10.3192C74.6226 10.6637 74.736 10.9221 74.9626 11.0944C75.1984 11.2667 75.5338 11.3528 75.969 11.3528Z" fill="#56CCF2"/>
<path d="M83.5825 12.604C82.8663 12.604 82.3223 12.4045 81.9505 12.0056C81.5788 11.6067 81.3929 11.0445 81.3929 10.3192V7.17761H80.4137V5.87201H81.3929V3.91361H83.1065V5.87201H84.6705V7.17761H83.1065V10.1016C83.1065 10.5187 83.1836 10.8179 83.3377 10.9992C83.4919 11.1715 83.7729 11.2576 84.1809 11.2576C84.462 11.2576 84.7385 11.1941 85.0105 11.0672V12.3728C84.6207 12.5269 84.1447 12.604 83.5825 12.604Z" fill="#56CCF2"/>
<path d="M21.4961 2.89355H26.3105C27.2262 2.89355 27.947 3.12022 28.4729 3.57355C29.0078 4.02689 29.2753 4.67516 29.2753 5.51836C29.2753 5.91729 29.1846 6.28902 29.0033 6.63356C28.822 6.97809 28.5636 7.25009 28.2281 7.44956C28.6905 7.63089 29.0305 7.89382 29.2481 8.23836C29.4657 8.57382 29.5745 9.01356 29.5745 9.55756C29.5745 10.1378 29.4385 10.6456 29.1665 11.0808C28.8945 11.5069 28.5273 11.8333 28.0649 12.06C27.6116 12.2866 27.1038 12.4 26.5417 12.4H21.4961V2.89355ZM25.7801 6.66076C26.4873 6.66076 26.8409 6.32982 26.8409 5.66796C26.8409 5.29622 26.7502 5.04236 26.5689 4.90636C26.3876 4.76129 26.111 4.68876 25.7393 4.68876H23.9033V6.66076H25.7801ZM25.9297 10.6048C26.3377 10.6048 26.6414 10.5277 26.8409 10.3736C27.0404 10.2194 27.1401 9.94742 27.1401 9.55756C27.1401 9.16769 27.0358 8.88662 26.8273 8.71435C26.6188 8.53302 26.3014 8.44236 25.8753 8.44236H23.9033V10.6048H25.9297Z" fill="#5C5EB6"/>
<path fill-rule="evenodd" clip-rule="evenodd" d="M34.5051 12.6159C33.6982 12.6159 32.991 12.4709 32.3835 12.1807C31.776 11.8815 31.3046 11.4735 30.9691 10.9567C30.6427 10.4309 30.4795 9.82793 30.4795 9.14793C30.4795 8.46793 30.6427 7.86953 30.9691 7.35273C31.3046 6.82687 31.776 6.41887 32.3835 6.12873C32.991 5.82953 33.6982 5.67993 34.5051 5.67993C35.312 5.67993 36.0192 5.82953 36.6267 6.12873C37.2342 6.41887 37.7011 6.82687 38.0275 7.35273C38.363 7.86953 38.5307 8.46793 38.5307 9.14793C38.5307 9.82793 38.363 10.4309 38.0275 10.9567C37.7011 11.4735 37.2342 11.8815 36.6267 12.1807C36.0192 12.4709 35.312 12.6159 34.5051 12.6159ZM32.9943 10.0671C32.8378 9.83215 32.7595 9.5459 32.7595 9.20836C32.7595 8.871 32.8377 8.58148 32.9941 8.33979C33.1501 8.09845 33.3707 7.9073 33.63 7.78878C33.8973 7.66304 34.2038 7.60016 34.5496 7.60016C34.8659 7.59551 35.1795 7.65983 35.4692 7.78878C35.7322 7.90531 35.9576 8.09452 36.1198 8.33481C36.2796 8.57325 36.3595 8.86447 36.3595 9.20845C36.3595 9.54618 36.2812 9.83244 36.1247 10.0672C36.0893 10.1206 36.0504 10.1715 36.0083 10.2196C35.9953 10.2347 35.986 10.2527 35.9814 10.2722C35.9134 10.5154 35.9396 10.7758 36.0548 10.9999C35.847 10.9476 35.659 10.8344 35.5143 10.6743C35.4988 10.6575 35.479 10.6455 35.4571 10.6395C35.4352 10.6335 35.4122 10.6339 35.3905 10.6406C35.3867 10.6417 35.3829 10.643 35.3792 10.6445C35.1135 10.7426 34.8324 10.7909 34.5497 10.787C34.2354 10.7921 33.9237 10.7295 33.6351 10.6032C33.3756 10.49 33.1534 10.304 32.9943 10.0671Z" fill="#5C5EB6"/>
</g>
<defs>
<clipPath id="clip0">
<rect width="86.4" height="16" fill="white"/>
</clipPath>
</defs>
</svg>
