<svg width="49" height="48" viewBox="0 0 49 48" fill="none" xmlns="http://www.w3.org/2000/svg">
<g clip-path="url(#clip0)">
<g opacity="0.25">
<path d="M24.4998 39.2379C32.9156 39.2379 39.7379 32.4156 39.7379 23.9998C39.7379 15.584 32.9156 8.76172 24.4998 8.76172C16.084 8.76172 9.26172 15.584 9.26172 23.9998C9.26172 32.4156 16.084 39.2379 24.4998 39.2379Z" fill="#03A9F4"/>
<path d="M31.7385 40.0004C36.5775 40.0004 40.5004 36.0775 40.5004 31.2385C40.5004 26.3994 36.5775 22.4766 31.7385 22.4766C26.8994 22.4766 22.9766 26.3994 22.9766 31.2385C22.9766 36.0775 26.8994 40.0004 31.7385 40.0004Z" fill="#03A9F4"/>
<path d="M17.2619 25.5238C22.101 25.5238 26.0238 21.601 26.0238 16.7619C26.0238 11.9228 22.101 8 17.2619 8C12.4228 8 8.5 11.9228 8.5 16.7619C8.5 21.601 12.4228 25.5238 17.2619 25.5238Z" fill="#03A9F4"/>
<path d="M24.9584 33.1431C19.9283 33.1431 17.6426 30.6281 17.6426 28.7233C17.6426 27.7321 18.3268 27.0479 19.318 27.0479C21.4521 27.0479 20.9195 30.1732 24.9576 30.1732C27.014 30.1732 28.1569 29.0304 28.1569 27.8875C28.1569 27.2003 27.8506 26.4384 26.4814 26.0574L21.9847 24.9146C18.4045 24.0003 17.7203 22.0178 17.7203 20.113C17.7203 16.2289 21.3005 14.8574 24.6521 14.8574C27.7767 14.8574 31.3569 16.5329 31.3569 18.8186C31.3569 19.8098 30.595 20.4201 29.6037 20.4201C27.7767 20.4201 28.0799 17.8281 24.422 17.8281C22.595 17.8281 21.5291 18.6677 21.5291 19.8875C21.5291 21.105 22.9751 21.486 24.2704 21.7923L27.6243 22.5542C31.2792 23.39 32.1188 25.5241 32.1188 27.5805C32.0411 30.7797 29.7553 33.1431 24.9584 33.1431Z" fill="white"/>
</g>
</g>
<defs>
<clipPath id="clip0">
<rect width="48" height="48" fill="white" transform="translate(0.5)"/>
</clipPath>
</defs>
</svg>
