<svg width="33" height="32" viewBox="0 0 33 32" fill="none" xmlns="http://www.w3.org/2000/svg">
<g opacity="0.25" clip-path="url(#clip0)">
<path fill-rule="evenodd" clip-rule="evenodd" d="M12.2326 0C10.4637 0.00130479 9.03212 1.43397 9.03342 3.19935C9.03212 4.96473 10.465 6.39739 12.2339 6.39869H15.4345V3.20065C15.4358 1.43527 14.0029 0.00260958 12.2326 0C12.2339 0 12.2339 0 12.2326 0V0ZM12.2326 8.53333H3.70053C1.93161 8.53464 0.498696 9.9673 0.500004 11.7327C0.497389 13.4981 1.9303 14.9307 3.69922 14.9333H12.2326C14.0016 14.932 15.4345 13.4994 15.4332 11.734C15.4345 9.9673 14.0016 8.53464 12.2326 8.53333Z" fill="#36C5F0"/>
<path fill-rule="evenodd" clip-rule="evenodd" d="M32.5006 11.7327C32.5019 9.9673 31.069 8.53464 29.3001 8.53333C27.5312 8.53464 26.0982 9.9673 26.0995 11.7327V14.9333H29.3001C31.069 14.932 32.5019 13.4994 32.5006 11.7327ZM23.9672 11.7327V3.19935C23.9685 1.43527 22.5369 0.00260958 20.7679 0C18.999 0.00130479 17.5661 1.43397 17.5674 3.19935V11.7327C17.5648 13.4981 18.9977 14.9307 20.7666 14.9333C22.5355 14.932 23.9685 13.4994 23.9672 11.7327Z" fill="#2EB67D"/>
<path fill-rule="evenodd" clip-rule="evenodd" d="M20.7669 32.0002C22.5358 31.9988 23.9688 30.5662 23.9675 28.8008C23.9688 27.0354 22.5358 25.6027 20.7669 25.6014H17.5664V28.8008C17.5651 30.5649 18.998 31.9975 20.7669 32.0002ZM20.7669 23.4655H29.3003C31.0693 23.4642 32.5022 22.0315 32.5009 20.2661C32.5035 18.5007 31.0706 17.068 29.3017 17.0654H20.7682C18.9993 17.0667 17.5664 18.4994 17.5677 20.2648C17.5664 22.0315 18.998 23.4642 20.7669 23.4655Z" fill="#ECB22E"/>
<path fill-rule="evenodd" clip-rule="evenodd" d="M0.500977 20.2658C0.49967 22.0312 1.93258 23.4638 3.7015 23.4651C5.47042 23.4638 6.90333 22.0312 6.90202 20.2658V17.0664H3.7015C1.93258 17.0677 0.49967 18.5004 0.500977 20.2658ZM9.0344 20.2658V28.7992C9.03178 30.5645 10.4647 31.9972 12.2336 31.9998C14.0025 31.9985 15.4354 30.5658 15.4341 28.8005V20.2684C15.4367 18.503 14.0038 17.0703 12.2349 17.0677C10.4647 17.0677 9.03309 18.5004 9.0344 20.2658C9.0344 20.2671 9.0344 20.2658 9.0344 20.2658Z" fill="#E01E5A"/>
</g>
<defs>
<clipPath id="clip0">
<rect width="32" height="32" fill="white" transform="translate(0.5)"/>
</clipPath>
</defs>
</svg>
