<svg width="49" height="48" viewBox="0 0 49 48" fill="none" xmlns="http://www.w3.org/2000/svg">
<rect x="0.5" width="48" height="48" rx="8" fill="black" fill-opacity="0.05"/>
<path d="M24.5 4C19.1957 4 14.1086 6.10714 10.3579 9.85786C6.60714 13.6086 4.5 18.6957 4.5 24C4.5 29.3043 6.60714 34.3914 10.3579 38.1421C14.1086 41.8929 19.1957 44 24.5 44C29.8043 44 34.8914 41.8929 38.6421 38.1421C42.3929 34.3914 44.5 29.3043 44.5 24C44.5 18.6957 42.3929 13.6086 38.6421 9.85786C34.8914 6.10714 29.8043 4 24.5 4Z" fill="#29B6F6"/>
<path d="M34.45 15L30.704 34.126C30.704 34.126 30.543 35 29.459 35C28.883 35 28.586 34.726 28.586 34.726L20.472 27.993L16.502 25.992L11.407 24.637C11.407 24.637 10.5 24.375 10.5 23.625C10.5 23 11.433 22.702 11.433 22.702L32.749 14.234C32.748 14.233 33.4 13.999 33.875 14C34.167 14 34.5 14.125 34.5 14.5C34.5 14.75 34.45 15 34.45 15Z" fill="white"/>
<path d="M23.4998 30.5052L20.0738 33.8792C20.0738 33.8792 19.9248 33.9942 19.7258 33.9992C19.6568 34.0012 19.5828 33.9902 19.5068 33.9562L20.4708 27.9912L23.4998 30.5052Z" fill="#B0BEC5"/>
<path d="M30.397 18.1959C30.228 17.9759 29.916 17.9359 29.696 18.1029L16.5 25.9999C16.5 25.9999 18.606 31.8919 18.927 32.9119C19.249 33.9329 19.507 33.9569 19.507 33.9569L20.471 27.9919L30.303 18.8959C30.523 18.7289 30.564 18.4159 30.397 18.1959Z" fill="#CFD8DC"/>
</svg>
