<svg width="49" height="49" viewBox="0 0 49 49" fill="none" xmlns="http://www.w3.org/2000/svg">
<g opacity="0.25">
<path d="M24.5 5.5C21.861 5.5 13.83 5.5 9.39 9.554C6.746 12.188 5.5 15.994 5.5 21.5V24.5C5.5 30.006 6.746 33.812 9.421 36.476C10.753 37.691 12.569 38.662 14.789 39.333L15.5 39.547V44.875C15.5 45.5 15.681 45.5 15.741 45.5C15.864 45.5 16.061 45.461 16.435 45.129C16.525 45.04 17.185 44.326 20.395 40.73L20.719 40.367L21.204 40.398C22.279 40.465 23.388 40.5 24.5 40.5C27.139 40.5 35.17 40.5 39.61 36.445C42.253 33.811 43.5 30.005 43.5 24.5V21.5C43.5 15.994 42.254 12.188 39.579 9.524C35.17 5.5 27.139 5.5 24.5 5.5Z" fill="white"/>
<path d="M33.9513 29.354C32.8403 28.418 32.3273 28.135 30.7933 27.214C30.1543 26.831 29.1803 26.5 28.6693 26.5C28.3203 26.5 27.9023 26.767 27.6463 27.023C26.9903 27.679 26.7753 28.5 25.6253 28.5C24.5003 28.5 22.5353 27.355 21.1253 25.875C19.6453 24.465 18.5003 22.5 18.5003 21.375C18.5003 20.225 19.3063 19.995 19.9623 19.338C20.2183 19.083 20.5003 18.665 20.5003 18.316C20.5003 17.805 20.1693 16.846 19.7863 16.207C18.8653 14.672 18.5833 14.159 17.6463 13.049C17.3293 12.673 16.9683 12.501 16.5903 12.5C15.9513 12.499 15.1123 12.816 14.5443 13.239C13.6903 13.876 12.7973 14.743 12.5583 15.823C12.5263 15.97 12.5073 16.118 12.5013 16.266C12.4553 17.391 12.8973 18.533 13.3743 19.5C14.4973 21.779 15.9833 23.985 17.6003 25.955C18.1173 26.585 18.6803 27.171 19.2633 27.737C19.8293 28.319 20.4153 28.882 21.0453 29.4C23.0153 31.017 25.2213 32.503 27.5003 33.626C28.4583 34.098 29.5863 34.532 30.7003 34.5C30.8593 34.495 31.0183 34.477 31.1773 34.442C32.2573 34.204 33.1243 33.31 33.7613 32.456C34.1843 31.888 34.5013 31.05 34.5003 30.41C34.4993 30.032 34.3273 29.671 33.9513 29.354Z" fill="#7E57C2"/>
<path d="M34.5 24.5C33.948 24.5 33.5 24.052 33.5 23.5V22.5C33.5 17.538 29.462 13.5 24.5 13.5C23.948 13.5 23.5 13.052 23.5 12.5C23.5 11.948 23.948 11.5 24.5 11.5C30.565 11.5 35.5 16.435 35.5 22.5V23.5C35.5 24.052 35.052 24.5 34.5 24.5Z" fill="#7E57C2"/>
<path d="M28.358 22.5002C27.914 22.5002 27.508 22.2022 27.391 21.7522C27.117 20.7012 26.297 19.8802 25.25 19.6102C24.715 19.4712 24.394 18.9262 24.532 18.3912C24.67 17.8572 25.214 17.5362 25.751 17.6732C27.499 18.1262 28.869 19.4952 29.326 21.2472C29.465 21.7822 29.145 22.3272 28.611 22.4672C28.526 22.4892 28.441 22.5002 28.358 22.5002Z" fill="#7E57C2"/>
<path d="M31.5004 23.5001C30.9484 23.5001 30.5004 23.0521 30.5004 22.5001C30.5004 19.3121 28.0064 16.6821 24.8224 16.5141C24.2704 16.4851 23.8474 16.0141 23.8764 15.4631C23.9054 14.9111 24.3844 14.4871 24.9274 14.5171C29.1744 14.7411 32.5004 18.2481 32.5004 22.5001C32.5004 23.0521 32.0524 23.5001 31.5004 23.5001Z" fill="#7E57C2"/>
<path d="M24.4995 4.5C19.9995 4.5 12.9875 4.914 8.71552 8.816C5.69552 11.823 4.49952 16.041 4.49952 21.5C4.49952 21.952 4.49752 22.456 4.50152 23C4.49752 23.543 4.49952 24.047 4.49952 24.499C4.49952 29.958 5.69552 34.176 8.71552 37.183C10.3415 38.668 12.3695 39.645 14.4995 40.289V44.875C14.4995 46.471 15.5485 46.5 15.7405 46.5H15.7495C16.2435 46.498 16.6705 46.256 17.0985 45.876C17.2595 45.733 19.1185 43.661 21.1405 41.395C22.3445 41.472 23.4885 41.5 24.4985 41.5C28.9985 41.5 36.0095 41.085 40.2825 37.183C43.3015 34.177 44.4985 29.958 44.4985 24.499C44.4985 24.047 44.5005 23.543 44.4965 22.999C44.5005 22.455 44.4985 21.952 44.4985 21.499C44.4985 16.04 43.3025 11.822 40.2825 8.815C36.0105 4.914 28.9995 4.5 24.4995 4.5ZM41.4995 24.151V24.499C41.4995 29.405 40.4545 32.748 38.2135 35.011C34.3315 38.5 26.9365 38.5 24.4985 38.5C23.7565 38.5 22.5525 38.499 21.1315 38.4C20.7365 38.844 16.4995 43.583 16.4995 43.583V37.72C14.3955 37.215 12.3165 36.387 10.7855 35.012C8.54452 32.748 7.49952 29.405 7.49952 24.499V24.151C7.49952 23.8 7.49852 23.421 7.50152 22.978C7.49852 22.578 7.49852 22.2 7.49952 21.848V21.5C7.49952 16.594 8.54452 13.251 10.7855 10.988C14.6665 7.499 22.0625 7.499 24.4995 7.499C26.9365 7.499 34.3315 7.499 38.2125 10.988C40.4545 13.251 41.4985 16.594 41.4985 21.5V21.848C41.4985 22.199 41.4995 22.578 41.4965 23.021C41.4995 23.422 41.4995 23.8 41.4995 24.151Z" fill="#7E57C2"/>
</g>
</svg>
