<svg width="49" height="49" viewBox="0 0 49 49" fill="none" xmlns="http://www.w3.org/2000/svg">
<g opacity="0.25">
<path d="M5.36816 43.803L8.06216 33.968C6.40016 31.09 5.52616 27.824 5.52716 24.479C5.53216 14.014 14.0482 5.5 24.5142 5.5C29.5932 5.502 34.3592 7.479 37.9442 11.066C41.5282 14.654 43.5022 19.422 43.5002 24.494C43.4962 34.959 34.9782 43.474 24.5142 43.474C24.5132 43.474 24.5142 43.474 24.5142 43.474H24.5062C21.3292 43.473 18.2062 42.676 15.4332 41.163L5.36816 43.803Z" fill="white"/>
<path d="M5.36773 44.303C5.23573 44.303 5.10773 44.251 5.01273 44.155C4.88773 44.028 4.83873 43.843 4.88573 43.672L7.52473 34.036C5.88873 31.13 5.02573 27.83 5.02773 24.48C5.03173 13.738 13.7727 5 24.5137 5C29.7237 5.002 34.6187 7.031 38.2977 10.713C41.9767 14.396 44.0017 19.29 43.9997 24.494C43.9957 35.235 35.2537 43.974 24.5137 43.974C21.3247 43.973 18.1697 43.186 15.3697 41.697L5.49473 44.286C5.45273 44.298 5.41073 44.303 5.36773 44.303Z" fill="white"/>
<path d="M24.5136 5.5C29.5926 5.502 34.3586 7.479 37.9436 11.066C41.5276 14.654 43.5016 19.422 43.4996 24.494C43.4956 34.959 34.9776 43.474 24.5136 43.474H24.5056C21.3286 43.473 18.2056 42.676 15.4326 41.163L5.3676 43.803L8.0616 33.968C6.3996 31.09 5.5256 27.824 5.5266 24.479C5.5316 14.014 14.0476 5.5 24.5136 5.5ZM24.5136 4.5C13.4976 4.5 4.5316 13.462 4.5266 24.479C4.5256 27.846 5.3756 31.164 6.9876 34.101L4.4026 43.54C4.3086 43.885 4.4046 44.253 4.6566 44.507C4.8466 44.699 5.1036 44.804 5.3676 44.804C5.4526 44.804 5.5376 44.793 5.6216 44.771L15.3086 42.231C18.1366 43.699 21.3066 44.474 24.5056 44.475C35.5296 44.475 44.4956 35.512 44.5006 24.495C44.5026 19.156 42.4256 14.136 38.6526 10.36C34.8776 6.583 29.8566 4.502 24.5136 4.5Z" fill="#CFD8DC"/>
<path d="M35.6764 13.3321C32.6964 10.3501 28.7354 8.70705 24.5194 8.70605C15.8154 8.70605 8.73642 15.7821 8.73242 24.4801C8.73142 27.4611 9.56542 30.3631 11.1454 32.8761L11.5214 33.4731L9.92642 39.2941L15.8994 37.7281L16.4764 38.0701C18.8984 39.5081 21.6764 40.2681 24.5084 40.2691H24.5144C33.2124 40.2691 40.2914 33.1921 40.2944 24.4931C40.2954 20.2781 38.6564 16.3141 35.6764 13.3321Z" fill="#40C351"/>
<path fill-rule="evenodd" clip-rule="evenodd" d="M19.7682 16.5449C19.4132 15.7549 19.0392 15.7389 18.7002 15.7249C18.4232 15.7129 18.1072 15.7139 17.7912 15.7139C17.4752 15.7139 16.9612 15.8329 16.5262 16.3079C16.0912 16.7829 14.8652 17.9299 14.8652 20.2639C14.8652 22.5979 16.5652 24.8539 16.8022 25.1699C17.0392 25.4859 20.0842 30.4289 24.9062 32.3309C28.9132 33.9109 29.7292 33.5969 30.5992 33.5179C31.4692 33.4389 33.4062 32.3709 33.8012 31.2629C34.1962 30.1549 34.1962 29.2059 34.0782 29.0079C33.9592 28.8099 33.6432 28.6919 33.1692 28.4539C32.6952 28.2159 30.3622 27.0689 29.9272 26.9109C29.4922 26.7529 29.1762 26.6739 28.8592 27.1489C28.5432 27.6229 27.6342 28.6919 27.3572 29.0079C27.0802 29.3249 26.8032 29.3649 26.3292 29.1269C25.8552 28.8889 24.3272 28.3889 22.5142 26.7729C21.1042 25.5159 20.1522 23.9629 19.8752 23.4879C19.5982 23.0139 19.8452 22.7569 20.0832 22.5199C20.2962 22.3069 20.5572 21.9659 20.7952 21.6889C21.0322 21.4119 21.1112 21.2139 21.2692 20.8979C21.4272 20.5809 21.3482 20.3039 21.2292 20.0669C21.1122 19.8289 20.1902 17.4829 19.7682 16.5449Z" fill="white"/>
</g>
</svg>
